{
  "asset": {
    "generator": "Khronos glTF Blender I/O v4.4.56",
    "version": "2.0"
  },
  "extensionsUsed": [
    "KHR_texture_transform",
    "KHR_materials_specular",
    "KHR_materials_sheen"
  ],
  "extensionsRequired": [
    "KHR_texture_transform"
  ],
  "scene": 0,
  "scenes": [
    {
      "name": "Scene",
      "nodes": [
        0
      ]
    }
  ],
  "nodes": [
    {
      "mesh": 0,
      "name": "sphere_gltf"
    }
  ],
  "materials": [
    {
      "doubleSided": true,
      "extensions": {
        "KHR_materials_specular": {
          "specularTexture": {
            "extensions": {
              "KHR_texture_transform": {
                "scale": [
                  0.96225506067276,
                  1
                ]
              }
            },
            "index": 0
          }
        },
        "KHR_materials_sheen": {
          "sheenColorFactor": [
            1,
            0.31658321619033813,
            0.39531147480010986
          ],
          "sheenRoughnessFactor": 0.239130437374115
        }
      },
      "name": "velour_velvet",
      "normalTexture": {
        "extensions": {
          "KHR_texture_transform": {
            "scale": [
              0.96225506067276,
              1
            ]
          }
        },
        "index": 1
      },
      "pbrMetallicRoughness": {
        "baseColorTexture": {
          "extensions": {
            "KHR_texture_transform": {
              "scale": [
                0.96225506067276,
                1
              ]
            }
          },
          "index": 2
        },
        "metallicRoughnessTexture": {
          "extensions": {
            "KHR_texture_transform": {
              "scale": [
                0.96225506067276,
                1
              ]
            }
          },
          "index": 3
        }
      }
    }
  ],
  "meshes": [
    {
      "name": "Sphere.001",
      "primitives": [
        {
          "attributes": {
            "POSITION": 0,
            "NORMAL": 1,
            "TEXCOORD_0": 2
          },
          "indices": 3,
          "material": 0
        }
      ]
    }
  ],
  "textures": [
    {
      "sampler": 0,
      "source": 0
    },
    {
      "sampler": 0,
      "source": 1
    },
    {
      "sampler": 0,
      "source": 2
    },
    {
      "sampler": 0,
      "source": 3
    }
  ],
  "images": [
    {
      "mimeType": "image/jpeg",
      "name": "velour_velvet_spec_ior",
      "uri": "textures/velour_velvet_spec_ior_1k.jpg"
    },
    {
      "mimeType": "image/jpeg",
      "name": "velour_velvet_nor_gl",
      "uri": "textures/velour_velvet_nor_gl_1k.jpg"
    },
    {
      "mimeType": "image/jpeg",
      "name": "velour_velvet_diff",
      "uri": "textures/velour_velvet_diff_1k.jpg"
    },
    {
      "mimeType": "image/jpeg",
      "name": "velour_velvet_metal-velour_velvet_rough",
      "uri": "textures/velour_velvet_arm_1k.jpg"
    }
  ],
  "accessors": [
    {
      "bufferView": 0,
      "componentType": 5126,
      "count": 53920,
      "max": [
        0.1368277221918106,
        0.13674916326999664,
        0.1367582380771637
      ],
      "min": [
        -0.1368277370929718,
        -0.13674718141555786,
        -0.13675755262374878
      ],
      "type": "VEC3"
    },
    {
      "bufferView": 1,
      "componentType": 5126,
      "count": 53920,
      "type": "VEC3"
    },
    {
      "bufferView": 2,
      "componentType": 5126,
      "count": 53920,
      "type": "VEC2"
    },
    {
      "bufferView": 3,
      "componentType": 5123,
      "count": 322170,
      "type": "SCALAR"
    }
  ],
  "bufferViews": [
    {
      "buffer": 0,
      "byteLength": 647040,
      "byteOffset": 0,
      "target": 34962
    },
    {
      "buffer": 0,
      "byteLength": 647040,
      "byteOffset": 647040,
      "target": 34962
    },
    {
      "buffer": 0,
      "byteLength": 431360,
      "byteOffset": 1294080,
      "target": 34962
    },
    {
      "buffer": 0,
      "byteLength": 644340,
      "byteOffset": 1725440,
      "target": 34963
    }
  ],
  "samplers": [
    {
      "magFilter": 9729,
      "minFilter": 9987
    }
  ],
  "buffers": [
    {
      "byteLength": 2369780,
      "uri": "velour_velvet.bin"
    }
  ]
}